<svg width="102" height="102" viewBox="0 0 1026 280" fill="none" xmlns="http://www.w3.org/2000/svg">
<path fill-rule="evenodd" clip-rule="evenodd" d="M157.24 170.841C172.239 169.321 193.412 163.864 211.068 152.229C229.573 140.034 243.985 121.277 243.985 92.8681C243.985 63.5772 233.737 46.0259 221.608 35.7053C209.255 25.1943 194.377 21.6992 184.677 21.6992H20.8001C15.4998 21.6992 12.8612 28.1217 16.6307 31.8478L157.24 170.841Z" fill="#EA0022"/>
<path d="M211.068 152.229C193.412 163.864 172.239 169.321 157.24 170.841L16.6307 31.8478C12.8612 28.1217 15.4998 21.6992 20.8001 21.6992H184.677C194.377 21.6992 209.255 25.1943 221.608 35.7053C233.737 46.0259 243.985 63.5772 243.985 92.8681C243.985 121.277 229.573 140.034 211.068 152.229Z" fill="#EA0022"/>
<path d="M211.068 158.159C193.412 169.794 172.239 175.251 157.24 176.771L19.2891 34.4219L131.965 124.187C157.24 144.126 182.736 142.354 206.763 131.047C219.43 125.087 234.083 113.91 245.26 83.8578C246.651 93.7699 251.814 130.518 211.068 158.159Z" fill="#9B0003"/>
<path fill-rule="evenodd" clip-rule="evenodd" d="M131.313 264.862L34.5703 172.619C30.7953 169.02 24.5469 171.695 24.5469 176.911V258.931C24.5469 262.207 27.2022 264.862 30.4776 264.862H131.313Z" fill="#BDBDBD"/>
<path d="M34.5703 172.619L131.313 264.862H30.4776C27.2022 264.862 24.5469 262.207 24.5469 258.931V176.911C24.5469 171.695 30.7953 169.02 34.5703 172.619Z" fill="#BDBDBD"/>
<path opacity="0.58" d="M33.2322 237.226L33.2326 221.058C33.5847 235.03 36.256 244.465 43.6833 248.584C57.0741 255.726 52.0153 256.619 37.2849 255.726C32.8298 255.456 33.4145 244.46 33.2322 237.226Z" fill="white"/>
<path d="M81.8511 217.914C112.874 258.554 77.4561 268.715 55.8691 268.715H136.142L81.8511 217.914Z" fill="#797979"/>
<path opacity="0.58" d="M186.083 28.6602H142.477C169.181 28.6602 193.064 33.5875 201.289 47.5756C209.579 66.0229 229.328 64.9333 221.317 49.801C213.306 34.6686 199.908 28.6602 186.083 28.6602Z" fill="white"/>
<path fill-rule="evenodd" clip-rule="evenodd" d="M8.29057 40.2837C-3.01778 29.1053 4.89776 9.83789 20.7986 9.83789H184.676C196.723 9.83789 214.463 14.0527 229.293 26.6717C244.347 39.481 255.845 60.4795 255.845 92.8683C255.845 126.139 238.626 148.272 217.593 162.133C201.498 172.74 183.039 178.631 167.842 181.323L233.55 246.276C244.859 257.454 236.943 276.721 221.042 276.721H30.4766C20.6502 276.721 12.6843 268.756 12.6843 258.929V176.909C12.6843 161.262 31.4297 153.234 42.7545 164.032L148.5 264.86H221.042C226.342 264.86 228.981 258.437 225.212 254.711L8.29057 40.2837ZM211.066 152.229C193.411 163.864 172.238 169.321 157.239 170.841L16.6293 31.848C12.8598 28.1218 15.4984 21.6994 20.7986 21.6994H184.676C194.375 21.6994 209.254 25.1945 221.606 35.7054C233.735 46.026 243.983 63.5773 243.983 92.8683C243.983 121.277 229.571 140.034 211.066 152.229ZM131.312 264.86L34.5692 172.617C30.7943 169.018 24.5458 171.693 24.5458 176.909V258.929C24.5458 262.205 27.2011 264.86 30.4766 264.86H131.312Z" fill="black"/>
<path fill-rule="evenodd" clip-rule="evenodd" d="M6.20651 42.3931C-6.98655 29.3517 2.24822 6.87305 20.7992 6.87305H184.677C197.31 6.87305 215.766 11.2678 231.216 24.4138C247 37.8453 258.811 59.7056 258.811 92.8688C258.811 127.355 240.891 150.333 219.225 164.61C204.654 174.212 188.241 180.027 173.906 183.148L235.636 244.167C248.829 257.209 239.594 279.687 221.043 279.687H30.4772C19.0131 279.687 9.71958 270.394 9.71958 258.93V176.91C9.71958 158.654 31.5891 149.289 44.8015 161.887L149.688 261.895H221.043C223.693 261.895 225.012 258.684 223.127 256.821L6.20651 42.3931ZM123.905 261.895L32.5235 174.764C30.636 172.964 27.5118 174.302 27.5118 176.91V258.93C27.5118 260.567 28.8394 261.895 30.4772 261.895H123.905ZM158.322 167.742C172.858 166.071 192.799 160.716 209.435 149.753C227.308 137.975 241.019 120.062 241.019 92.8688C241.019 64.3523 231.083 47.6628 219.685 37.9644C207.952 27.9805 193.789 24.6653 184.677 24.6653H20.7992C18.1492 24.6653 16.8298 27.8765 18.7146 29.7396L158.322 167.742Z" fill="black"/>
<path d="M434.713 182.681C434.55 182.681 434.398 182.602 434.304 182.469L400.059 133.709C399.958 133.565 399.789 133.485 399.614 133.498C395.476 133.789 392.214 133.935 389.827 133.935H350.735C350.459 133.935 350.235 134.159 350.235 134.435V182.181C350.235 182.457 350.011 182.681 349.735 182.681H327.85C327.573 182.681 327.35 182.457 327.35 182.181V22.983C327.35 22.7068 327.573 22.483 327.85 22.483H389.827C410.576 22.483 426.901 27.4415 438.802 37.3585C450.702 47.2756 456.652 60.9305 456.652 78.3235C456.652 90.6816 453.601 101.209 447.498 109.905C441.508 118.441 433.02 124.698 422.033 128.678C421.721 128.791 421.599 129.17 421.791 129.441L458.842 181.893C459.076 182.224 458.839 182.681 458.433 182.681H434.713ZM389.14 114.483C403.634 114.483 414.696 111.355 422.324 105.099C429.953 98.8441 433.767 89.9188 433.767 78.3235C433.767 66.7282 429.953 57.8792 422.324 51.7764C414.696 45.521 403.634 42.3933 389.14 42.3933H350.735C350.459 42.3933 350.235 42.6172 350.235 42.8933V113.983C350.235 114.259 350.459 114.483 350.735 114.483H389.14Z" fill="black"/>
<path d="M699.195 60.0574C699.195 59.7813 699.419 59.5574 699.695 59.5574H734.397C734.673 59.5574 734.897 59.7813 734.897 60.0574V182.181C734.897 182.457 734.673 182.681 734.397 182.681H717.046H699.195V152.558V60.0574Z" fill="black"/>
<path d="M824.987 57.7266C840.244 57.7266 852.526 62.3037 861.832 71.4579C871.292 80.612 876.021 94.1907 876.021 112.194V182.181C876.021 182.457 875.797 182.681 875.521 182.681H840.82C840.544 182.681 840.32 182.457 840.32 182.181V117.686C840.32 107.922 838.184 100.675 833.912 95.9453C829.64 91.0631 823.461 88.622 815.375 88.622C806.373 88.622 799.202 91.4445 793.862 97.0896C788.523 102.582 785.853 110.821 785.853 121.806V182.181C785.853 182.457 785.629 182.681 785.353 182.681H750.651C750.375 182.681 750.151 182.457 750.151 182.181V60.0574C750.151 59.7813 750.375 59.5574 750.651 59.5574H783.751C784.027 59.5574 784.251 59.7813 784.251 60.0574V72.6848C784.251 73.1414 784.816 73.3628 785.134 73.0344C789.705 68.3058 795.285 64.6526 801.872 62.0748C808.891 59.176 816.595 57.7266 824.987 57.7266Z" fill="black"/>
<path d="M943.716 134.823C943.53 134.593 943.186 134.573 942.975 134.781L926.354 151.181C926.258 151.275 926.205 151.403 926.205 151.537V182.181C926.205 182.457 925.981 182.681 925.705 182.681H891.003C890.727 182.681 890.503 182.457 890.503 182.181V13.3711C890.503 13.095 890.727 12.8711 891.003 12.8711H925.705C925.981 12.8711 926.205 13.095 926.205 13.3711V107.828C926.205 108.267 926.73 108.492 927.049 108.191L978.239 59.6944C978.332 59.6065 978.455 59.5574 978.583 59.5574H1019.76C1020.2 59.5574 1020.43 60.0916 1020.12 60.4078L969.996 111.422C969.819 111.602 969.804 111.884 969.959 112.082L1024.89 181.872C1025.15 182.2 1024.92 182.681 1024.5 182.681H982.513C982.362 182.681 982.219 182.613 982.124 182.495L943.716 134.823Z" fill="black"/>
<path d="M615.455 171.467C623.541 178.943 634.908 182.681 649.554 182.681H699.195V152.558H655.125C650.243 152.558 646.428 151.185 643.682 148.439C641.088 145.54 639.791 141.497 639.791 136.31V86.6904C639.791 86.4142 640.015 86.1904 640.291 86.1904H669.958C670.234 86.1904 670.458 85.9665 670.458 85.6904V59.2278C670.458 58.9517 670.234 58.7278 669.958 58.7278H640.291C640.015 58.7278 639.791 58.504 639.791 58.2278V29.2479C639.791 28.9717 639.568 28.7479 639.291 28.7479H604.59C604.314 28.7479 604.09 28.9717 604.09 29.2479V58.2278C604.09 58.504 603.866 58.7278 603.59 58.7278H585.595C585.319 58.7278 585.095 58.9517 585.095 59.2278V85.6904C585.095 85.9665 585.319 86.1904 585.595 86.1904H603.585C603.863 86.1904 604.088 86.4174 604.085 86.6955L603.554 138.512C603.554 153.006 607.521 163.991 615.455 171.467Z" fill="black"/>
<path fill-rule="evenodd" clip-rule="evenodd" d="M580.448 122.721C580.448 124.308 580.312 126.372 580.039 128.913C580.012 129.166 579.798 129.358 579.543 129.358H482.152C481.85 129.358 481.617 129.624 481.659 129.923C483.122 140.342 487.75 148.774 495.543 155.219C503.63 161.627 513.623 164.831 525.523 164.831H579.948C580.225 164.831 580.448 165.054 580.448 165.331V183.554C580.448 183.83 580.225 184.054 579.948 184.054H524.837C512.021 184.054 500.654 181.461 490.737 176.273C480.82 170.933 473.116 163.534 467.623 154.074C462.283 144.615 459.613 133.935 459.613 122.035C459.613 110.287 462.207 99.6833 467.394 90.2239C472.734 80.7646 479.981 73.4413 489.135 68.2539C498.442 62.914 508.893 60.244 520.489 60.244C532.084 60.244 542.382 62.914 551.384 68.2539C560.538 73.4413 567.633 80.7646 572.667 90.2239C577.855 99.6833 580.448 110.516 580.448 122.721ZM493.941 88.3931C501.112 81.9852 509.961 78.7812 520.489 78.7812C531.016 78.7812 539.789 82.0615 546.807 88.622C553.846 94.9125 558.019 103.041 559.324 113.007C559.363 113.304 559.13 113.567 558.831 113.567H482.146C481.846 113.567 481.614 113.305 481.652 113.008C482.953 102.89 487.05 94.6855 493.941 88.3931Z" fill="black"/>
<path d="M382.946 225.881C386.427 225.881 389.574 226.692 392.387 228.313C395.2 229.886 397.393 232.127 398.966 235.035C400.587 237.896 401.398 241.162 401.398 244.833C401.398 248.505 400.587 251.77 398.966 254.631C397.393 257.492 395.2 259.733 392.387 261.354C389.574 262.975 386.427 263.785 382.946 263.785C379.609 263.785 376.581 262.999 373.864 261.425C371.194 259.804 369.12 257.563 367.642 254.703V263.499H364.209V210.434H367.785V234.678C369.263 231.913 371.337 229.767 374.007 228.241C376.677 226.668 379.657 225.881 382.946 225.881ZM382.732 260.567C385.593 260.567 388.167 259.9 390.456 258.565C392.744 257.23 394.532 255.37 395.82 252.986C397.155 250.602 397.822 247.885 397.822 244.833C397.822 241.782 397.155 239.064 395.82 236.68C394.532 234.296 392.744 232.437 390.456 231.102C388.167 229.767 385.593 229.1 382.732 229.1C379.871 229.1 377.297 229.767 375.008 231.102C372.767 232.437 370.979 234.296 369.644 236.68C368.357 239.064 367.713 241.782 367.713 244.833C367.713 247.885 368.357 250.602 369.644 252.986C370.979 255.37 372.767 257.23 375.008 258.565C377.297 259.9 379.871 260.567 382.732 260.567Z" fill="#7B7B7B"/>
<path d="M444.008 245.692H411.897C411.992 248.6 412.731 251.198 414.114 253.487C415.497 255.728 417.356 257.468 419.692 258.708C422.076 259.947 424.746 260.567 427.702 260.567C430.134 260.567 432.375 260.138 434.425 259.28C436.523 258.374 438.263 257.063 439.646 255.346L441.719 257.706C440.098 259.661 438.048 261.163 435.569 262.212C433.137 263.261 430.491 263.785 427.631 263.785C423.912 263.785 420.598 262.975 417.69 261.354C414.781 259.733 412.493 257.492 410.824 254.631C409.203 251.77 408.393 248.505 408.393 244.833C408.393 241.21 409.155 237.968 410.681 235.107C412.254 232.199 414.4 229.934 417.118 228.313C419.835 226.692 422.887 225.881 426.272 225.881C429.657 225.881 432.685 226.692 435.354 228.313C438.072 229.886 440.194 232.103 441.719 234.964C443.293 237.825 444.08 241.067 444.08 244.69L444.008 245.692ZM426.272 229.028C423.65 229.028 421.289 229.624 419.192 230.816C417.094 231.96 415.401 233.605 414.114 235.751C412.874 237.848 412.159 240.232 411.968 242.902H440.575C440.432 240.232 439.717 237.848 438.43 235.751C437.142 233.653 435.45 232.008 433.352 230.816C431.254 229.624 428.894 229.028 426.272 229.028Z" fill="#7B7B7B"/>
<path d="M484.409 226.167L465.242 268.577C463.812 271.867 462.143 274.203 460.236 275.586C458.377 276.968 456.16 277.66 453.585 277.66C451.869 277.66 450.248 277.374 448.722 276.801C447.244 276.229 445.981 275.395 444.932 274.298L446.72 271.581C448.627 273.535 450.939 274.513 453.657 274.513C455.468 274.513 457.018 274.012 458.305 273.011C459.593 272.01 460.785 270.293 461.881 267.862L463.884 263.356L447.077 226.167H450.868L465.815 259.566L480.762 226.167H484.409Z" fill="#7B7B7B"/>
<path d="M505.769 263.785C502.241 263.785 499.047 262.975 496.186 261.354C493.373 259.733 491.156 257.492 489.535 254.631C487.914 251.723 487.103 248.457 487.103 244.833C487.103 241.21 487.914 237.968 489.535 235.107C491.156 232.199 493.373 229.934 496.186 228.313C499.047 226.692 502.241 225.881 505.769 225.881C509.297 225.881 512.468 226.692 515.281 228.313C518.142 229.934 520.382 232.199 522.004 235.107C523.625 237.968 524.435 241.21 524.435 244.833C524.435 248.457 523.625 251.723 522.004 254.631C520.382 257.492 518.142 259.733 515.281 261.354C512.468 262.975 509.297 263.785 505.769 263.785ZM505.769 260.567C508.63 260.567 511.181 259.9 513.421 258.565C515.71 257.23 517.498 255.37 518.785 252.986C520.12 250.602 520.788 247.885 520.788 244.833C520.788 241.782 520.12 239.064 518.785 236.68C517.498 234.296 515.71 232.437 513.421 231.102C511.181 229.767 508.63 229.1 505.769 229.1C502.908 229.1 500.334 229.767 498.045 231.102C495.804 232.437 494.017 234.296 492.682 236.68C491.394 239.064 490.751 241.782 490.751 244.833C490.751 247.885 491.394 250.602 492.682 252.986C494.017 255.37 495.804 257.23 498.045 258.565C500.334 259.9 502.908 260.567 505.769 260.567Z" fill="#7B7B7B"/>
<path d="M550.118 263.785C546.59 263.785 543.396 262.975 540.535 261.354C537.722 259.733 535.505 257.492 533.884 254.631C532.263 251.723 531.452 248.457 531.452 244.833C531.452 241.21 532.263 237.968 533.884 235.107C535.505 232.199 537.722 229.934 540.535 228.313C543.396 226.692 546.59 225.881 550.118 225.881C553.646 225.881 556.817 226.692 559.63 228.313C562.491 229.934 564.731 232.199 566.352 235.107C567.974 237.968 568.784 241.21 568.784 244.833C568.784 248.457 567.974 251.723 566.352 254.631C564.731 257.492 562.491 259.733 559.63 261.354C556.817 262.975 553.646 263.785 550.118 263.785ZM550.118 260.567C552.979 260.567 555.53 259.9 557.77 258.565C560.059 257.23 561.847 255.37 563.134 252.986C564.469 250.602 565.137 247.885 565.137 244.833C565.137 241.782 564.469 239.064 563.134 236.68C561.847 234.296 560.059 232.437 557.77 231.102C555.53 229.767 552.979 229.1 550.118 229.1C547.257 229.1 544.683 229.767 542.394 231.102C540.153 232.437 538.365 234.296 537.031 236.68C535.743 239.064 535.1 241.782 535.1 244.833C535.1 247.885 535.743 250.602 537.031 252.986C538.365 255.37 540.153 257.23 542.394 258.565C544.683 259.9 547.257 260.567 550.118 260.567Z" fill="#7B7B7B"/>
<path d="M594.467 263.785C590.939 263.785 587.744 262.975 584.884 261.354C582.071 259.733 579.854 257.492 578.233 254.631C576.612 251.723 575.801 248.457 575.801 244.833C575.801 241.21 576.612 237.968 578.233 235.107C579.854 232.199 582.071 229.934 584.884 228.313C587.744 226.692 590.939 225.881 594.467 225.881C597.995 225.881 601.166 226.692 603.979 228.313C606.84 229.934 609.08 232.199 610.701 235.107C612.322 237.968 613.133 241.21 613.133 244.833C613.133 248.457 612.322 251.723 610.701 254.631C609.08 257.492 606.84 259.733 603.979 261.354C601.166 262.975 597.995 263.785 594.467 263.785ZM594.467 260.567C597.328 260.567 599.879 259.9 602.119 258.565C604.408 257.23 606.196 255.37 607.483 252.986C608.818 250.602 609.486 247.885 609.486 244.833C609.486 241.782 608.818 239.064 607.483 236.68C606.196 234.296 604.408 232.437 602.119 231.102C599.879 229.767 597.328 229.1 594.467 229.1C591.606 229.1 589.032 229.767 586.743 231.102C584.502 232.437 582.714 234.296 581.379 236.68C580.092 239.064 579.448 241.782 579.448 244.833C579.448 247.885 580.092 250.602 581.379 252.986C582.714 255.37 584.502 257.23 586.743 258.565C589.032 259.9 591.606 260.567 594.467 260.567Z" fill="#7B7B7B"/>
<path d="M642.463 225.881C647.136 225.881 650.831 227.24 653.549 229.958C656.266 232.675 657.625 236.585 657.625 241.687V263.499H654.049V241.973C654.049 237.777 652.976 234.583 650.831 232.389C648.733 230.196 645.777 229.1 641.963 229.1C637.576 229.1 634.12 230.411 631.593 233.033C629.066 235.655 627.802 239.183 627.802 243.618V263.499H624.227V226.167H627.659V234.249C628.947 231.626 630.854 229.576 633.381 228.098C635.955 226.62 638.983 225.881 642.463 225.881Z" fill="#7B7B7B"/>
<path d="M705.601 210.434V263.499H702.096V254.703C700.618 257.611 698.544 259.852 695.874 261.425C693.204 262.999 690.177 263.785 686.792 263.785C683.311 263.785 680.164 262.975 677.351 261.354C674.538 259.733 672.321 257.492 670.7 254.631C669.127 251.77 668.34 248.505 668.34 244.833C668.34 241.162 669.127 237.896 670.7 235.035C672.321 232.127 674.538 229.886 677.351 228.313C680.164 226.692 683.311 225.881 686.792 225.881C690.129 225.881 693.109 226.668 695.731 228.241C698.401 229.815 700.499 232.008 702.025 234.821V210.434H705.601ZM687.006 260.567C689.867 260.567 692.418 259.9 694.659 258.565C696.947 257.23 698.735 255.37 700.022 252.986C701.357 250.602 702.025 247.885 702.025 244.833C702.025 241.782 701.357 239.064 700.022 236.68C698.735 234.296 696.947 232.437 694.659 231.102C692.418 229.767 689.867 229.1 687.006 229.1C684.146 229.1 681.571 229.767 679.282 231.102C677.042 232.437 675.254 234.296 673.919 236.68C672.631 239.064 671.988 241.782 671.988 244.833C671.988 247.885 672.631 250.602 673.919 252.986C675.254 255.37 677.042 257.23 679.282 258.565C681.571 259.9 684.146 260.567 687.006 260.567Z" fill="#7B7B7B"/>
<path d="M753.849 263.785C750.225 263.785 746.983 262.975 744.123 261.354C741.262 259.733 739.021 257.492 737.4 254.631C735.779 251.723 734.968 248.457 734.968 244.833C734.968 241.162 735.779 237.896 737.4 235.035C739.021 232.127 741.262 229.886 744.123 228.313C746.983 226.692 750.225 225.881 753.849 225.881C756.853 225.881 759.57 226.477 762.002 227.669C764.481 228.813 766.484 230.506 768.009 232.747L765.363 234.678C764.028 232.818 762.359 231.436 760.357 230.53C758.402 229.576 756.233 229.1 753.849 229.1C750.941 229.1 748.318 229.767 745.982 231.102C743.694 232.389 741.882 234.225 740.547 236.609C739.259 238.993 738.616 241.734 738.616 244.833C738.616 247.932 739.259 250.674 740.547 253.058C741.882 255.442 743.694 257.301 745.982 258.636C748.318 259.923 750.941 260.567 753.849 260.567C756.233 260.567 758.402 260.114 760.357 259.208C762.359 258.255 764.028 256.848 765.363 254.989L768.009 256.92C766.484 259.161 764.481 260.877 762.002 262.069C759.57 263.213 756.853 263.785 753.849 263.785Z" fill="#7B7B7B"/>
<path d="M792.675 263.785C789.147 263.785 785.953 262.975 783.092 261.354C780.279 259.733 778.062 257.492 776.441 254.631C774.82 251.723 774.009 248.457 774.009 244.833C774.009 241.21 774.82 237.968 776.441 235.107C778.062 232.199 780.279 229.934 783.092 228.313C785.953 226.692 789.147 225.881 792.675 225.881C796.204 225.881 799.374 226.692 802.187 228.313C805.048 229.934 807.289 232.199 808.91 235.107C810.531 237.968 811.341 241.21 811.341 244.833C811.341 248.457 810.531 251.723 808.91 254.631C807.289 257.492 805.048 259.733 802.187 261.354C799.374 262.975 796.204 263.785 792.675 263.785ZM792.675 260.567C795.536 260.567 798.087 259.9 800.328 258.565C802.616 257.23 804.404 255.37 805.692 252.986C807.027 250.602 807.694 247.885 807.694 244.833C807.694 241.782 807.027 239.064 805.692 236.68C804.404 234.296 802.616 232.437 800.328 231.102C798.087 229.767 795.536 229.1 792.675 229.1C789.815 229.1 787.24 229.767 784.952 231.102C782.711 232.437 780.923 234.296 779.588 236.68C778.301 239.064 777.657 241.782 777.657 244.833C777.657 247.885 778.301 250.602 779.588 252.986C780.923 255.37 782.711 257.23 784.952 258.565C787.24 259.9 789.815 260.567 792.675 260.567Z" fill="#7B7B7B"/>
<path d="M840.672 225.881C845.344 225.881 849.039 227.24 851.757 229.958C854.475 232.675 855.833 236.585 855.833 241.687V263.499H852.258V241.973C852.258 237.777 851.185 234.583 849.039 232.389C846.941 230.196 843.985 229.1 840.171 229.1C835.785 229.1 832.328 230.411 829.801 233.033C827.274 235.655 826.011 239.183 826.011 243.618V263.499H822.435V226.167H825.868V234.249C827.155 231.626 829.062 229.576 831.589 228.098C834.164 226.62 837.191 225.881 840.672 225.881Z" fill="#7B7B7B"/>
<path d="M889.078 261.139C888.172 261.997 887.028 262.665 885.645 263.142C884.31 263.571 882.904 263.785 881.426 263.785C878.184 263.785 875.681 262.903 873.917 261.139C872.152 259.327 871.27 256.824 871.27 253.63V229.243H864.405V226.167H871.27V218.014H874.846V226.167H886.718V229.243H874.846V253.272C874.846 255.704 875.418 257.563 876.563 258.851C877.755 260.09 879.495 260.71 881.783 260.71C884.12 260.71 886.051 260.019 887.576 258.636L889.078 261.139Z" fill="#7B7B7B"/>
<path d="M929.262 245.692H897.151C897.247 248.6 897.986 251.198 899.368 253.487C900.751 255.728 902.61 257.468 904.947 258.708C907.331 259.947 910 260.567 912.957 260.567C915.388 260.567 917.629 260.138 919.679 259.28C921.777 258.374 923.517 257.063 924.9 255.346L926.974 257.706C925.353 259.661 923.303 261.163 920.823 262.212C918.392 263.261 915.746 263.785 912.885 263.785C909.166 263.785 905.852 262.975 902.944 261.354C900.036 259.733 897.747 257.492 896.078 254.631C894.457 251.77 893.647 248.505 893.647 244.833C893.647 241.21 894.41 237.968 895.935 235.107C897.509 232.199 899.654 229.934 902.372 228.313C905.09 226.692 908.141 225.881 911.526 225.881C914.911 225.881 917.939 226.692 920.609 228.313C923.326 229.886 925.448 232.103 926.974 234.964C928.547 237.825 929.334 241.067 929.334 244.69L929.262 245.692ZM911.526 229.028C908.904 229.028 906.544 229.624 904.446 230.816C902.348 231.96 900.656 233.605 899.368 235.751C898.129 237.848 897.413 240.232 897.223 242.902H925.83C925.687 240.232 924.971 237.848 923.684 235.751C922.397 233.653 920.704 232.008 918.606 230.816C916.509 229.624 914.148 229.028 911.526 229.028Z" fill="#7B7B7B"/>
<path d="M958.633 225.881C963.305 225.881 967.001 227.24 969.718 229.958C972.436 232.675 973.795 236.585 973.795 241.687V263.499H970.219V241.973C970.219 237.777 969.146 234.583 967 232.389C964.903 230.196 961.947 229.1 958.132 229.1C953.746 229.1 950.289 230.411 947.762 233.033C945.235 235.655 943.972 239.183 943.972 243.618V263.499H940.396V226.167H943.829V234.249C945.116 231.626 947.023 229.576 949.55 228.098C952.125 226.62 955.153 225.881 958.633 225.881Z" fill="#7B7B7B"/>
<path d="M1007.04 261.139C1006.13 261.997 1004.99 262.665 1003.61 263.142C1002.27 263.571 1000.87 263.785 999.387 263.785C996.145 263.785 993.642 262.903 991.878 261.139C990.114 259.327 989.232 256.824 989.232 253.63V229.243H982.366V226.167H989.232V218.014H992.808V226.167H1004.68V229.243H992.808V253.272C992.808 255.704 993.38 257.563 994.524 258.851C995.716 260.09 997.456 260.71 999.745 260.71C1002.08 260.71 1004.01 260.019 1005.54 258.636L1007.04 261.139Z" fill="#7B7B7B"/>
<path d="M1017.28 263.785C1016.47 263.785 1015.76 263.499 1015.14 262.927C1014.56 262.307 1014.28 261.568 1014.28 260.71C1014.28 259.852 1014.56 259.137 1015.14 258.565C1015.76 257.992 1016.47 257.706 1017.28 257.706C1018.09 257.706 1018.78 257.992 1019.35 258.565C1019.97 259.137 1020.28 259.852 1020.28 260.71C1020.28 261.568 1019.97 262.307 1019.35 262.927C1018.78 263.499 1018.09 263.785 1017.28 263.785Z" fill="#7B7B7B"/>
<rect x="693.859" width="42.9102" height="42.9102" rx="3" fill="#EA0022"/>
</svg>
